<svg viewBox="0 1 511 511.99901" xmlns="http://www.w3.org/2000/svg"><path d="m220.355469 494.316406c-56.453125-8.480468-108.273438-37.027344-145.910157-80.382812-38.011718-43.78125-58.949218-99.871094-58.949218-157.933594 0-38.847656 9.457031-77.445312 27.347656-111.625 1.921875-3.667969.503906-8.199219-3.164062-10.121094-3.671876-1.921875-8.203126-.503906-10.121094 3.167969-19.011719 36.3125-29.058594 77.316406-29.058594 118.578125 0 61.675781 22.238281 121.253906 62.617188 167.769531 39.976562 46.046875 95.027343 76.367188 155.007812 85.378907.378906.054687.753906.082031 1.125.082031 3.648438 0 6.847656-2.667969 7.40625-6.386719.613281-4.09375-2.207031-7.914062-6.300781-8.527344zm0 0"/><path d="m437.449219 74.980469c-48.34375-48.351563-112.621094-74.980469-180.988281-74.980469-41.234376 0-80.601563 9.507812-117.015626 28.257812-34.730468 17.886719-65.414062 43.96875-88.734374 75.433594-2.46875 3.328125-1.769532 8.023438 1.558593 10.488282 3.324219 2.464843 8.023438 1.769531 10.488281-1.558594 21.960938-29.628906 50.855469-54.191406 83.554688-71.03125 34.265625-17.644532 71.324219-26.59375 110.148438-26.59375 64.363281 0 124.875 25.070312 170.386718 70.589844 45.511719 45.519531 70.574219 106.039062 70.574219 170.414062s-25.0625 124.894531-70.574219 170.414062c-45.515625 45.519532-106.023437 70.585938-170.386718 70.585938-4.140626 0-7.5 3.359375-7.5 7.5s3.359374 7.5 7.5 7.5c68.367187 0 132.644531-26.628906 180.992187-74.984375 48.34375-48.347656 74.96875-112.636719 74.96875-181.015625 0-68.382812-26.625-132.667969-74.972656-181.019531zm0 0"/><path d="m267.722656 394.316406 50.300782-50.503906c2.921874-2.933594 2.910156-7.679688-.023438-10.601562-2.933594-2.925782-7.683594-2.914063-10.605469.019531l-50.289062 50.5-106.917969-107.347657c-25.542969-25.644531-25.542969-67.371093 0-93.019531 12.363281-12.410156 28.800781-19.25 46.28125-19.25s33.917969 6.839844 46.28125 19.25l9.039062 9.074219c1.40625 1.414062 3.316407 2.207031 5.3125 2.207031 1.992188 0 3.90625-.792969 5.3125-2.207031l8.546876-8.582031c12.339843-12.390625 28.742187-19.210938 46.1875-19.210938h.007812c17.445312 0 33.851562 6.824219 46.183594 19.214844l.175781.175781c25.496094 25.597656 25.496094 67.25 0 92.847656l-32.601563 32.730469c-2.921874 2.9375-2.910156 7.683594.023438 10.605469s7.683594 2.914062 10.605469-.019531l32.601562-32.730469c31.308594-31.433594 31.308594-82.582031.003907-114.011719l-.175782-.175781c-15.171875-15.238281-35.351562-23.632812-56.816406-23.632812-.003906 0-.003906 0-.007812 0-21.460938 0-41.640626 8.390624-56.8125 23.625l-3.234376 3.246093-3.722656-3.738281c-15.199218-15.257812-35.410156-23.664062-56.910156-23.664062s-41.707031 8.40625-56.90625 23.664062c-31.359375 31.480469-31.359375 82.707031 0 114.1875l106.917969 107.34375c2.835937 2.847656 6.605469 4.417969 10.621093 4.417969 4.011719 0 7.785157-1.570313 10.621094-4.414063zm0 0"/></svg>