<?xml version="1.0" encoding="iso-8859-1"?>
<svg version="1.1" id="Capa_1" xmlns="http://www.w3.org/2000/svg" xmlns:xlink="http://www.w3.org/1999/xlink" x="0px" y="0px"
	 viewBox="0 0 407.268 407.268" style="enable-background:new 0 0 407.268 407.268;" xml:space="preserve">
<path id="XMLID_510_" d="M237.458,337.95c4.971,0,9,4.029,9,9v15.81c0,4.971-4.029,9-9,9s-9-4.029-9-9v-15.81
	C228.458,341.979,232.487,337.95,237.458,337.95z M223.573,156.584c-3.961-3.005-9.606-2.229-12.609,1.73
	c-3.005,3.96-2.229,9.605,1.73,12.609l16.785,12.733c1.608,1.221,3.523,1.83,5.439,1.83s3.832-0.61,5.44-1.83l16.781-12.733
	c3.96-3.005,4.733-8.65,1.729-12.61c-3.005-3.959-8.649-4.732-12.61-1.729l-11.342,8.606L223.573,156.584z M290.158,118.647
	c-3.005-3.961-8.65-4.736-12.609-1.73l-11.345,8.606l-11.346-8.606c-3.961-3.005-9.605-2.229-12.609,1.73
	c-3.005,3.96-2.229,9.605,1.73,12.609l16.785,12.733c1.608,1.22,3.523,1.83,5.439,1.83s3.832-0.61,5.439-1.83l16.784-12.733
	C292.388,128.253,293.162,122.607,290.158,118.647z M262.279,346.95v15.81c0,4.971,4.029,9,9,9s9-4.029,9-9v-15.81
	c0-4.971-4.029-9-9-9S262.279,341.979,262.279,346.95z M319.4,371.169c-4.227-2.619-9.772-1.314-12.391,2.91l-9.411,15.188H109.666
	l-9.412-15.189c-2.617-4.224-8.165-5.528-12.392-2.909c-4.225,2.618-5.527,8.166-2.909,12.392l12.052,19.447
	c1.642,2.648,4.535,4.26,7.65,4.26H302.61c3.115,0,6.01-1.611,7.65-4.26l12.05-19.448
	C324.929,379.334,323.626,373.787,319.4,371.169z M203.633,337.95c-4.971,0-9,4.029-9,9v15.81c0,4.971,4.029,9,9,9s9-4.029,9-9
	v-15.81C212.633,341.979,208.603,337.95,203.633,337.95z M161.005,156.584c-3.958-3.005-9.604-2.229-12.609,1.73
	c-3.004,3.959-2.229,9.605,1.73,12.609l16.783,12.733c1.607,1.22,3.523,1.83,5.439,1.83s3.832-0.61,5.44-1.83l16.782-12.733
	c3.959-3.005,4.733-8.65,1.729-12.61c-3.005-3.959-8.649-4.734-12.61-1.729l-11.342,8.606L161.005,156.584z M214.977,116.917
	l-11.344,8.606l-11.346-8.606c-3.961-3.005-9.606-2.229-12.609,1.73c-3.005,3.96-2.229,9.605,1.73,12.609l16.785,12.733
	c1.608,1.221,3.523,1.83,5.439,1.83s3.832-0.61,5.439-1.83l16.783-12.733c3.96-3.004,4.734-8.65,1.73-12.609
	C224.581,114.687,218.935,113.911,214.977,116.917z M126.986,362.76c0,4.971,4.029,9,9,9s9-4.029,9-9v-15.81c0-4.971-4.029-9-9-9
	s-9,4.029-9,9V362.76z M405.302,197.085c0.338,40.827-10.706,85.336-20.45,124.605c-2.826,11.388-5.495,22.145-7.737,32.216
	c-0.917,4.114-4.566,7.042-8.782,7.043l-58.805,0.019c-2.388,0.001-4.678-0.947-6.366-2.635c-1.688-1.688-2.637-3.978-2.637-6.365
	V214.081l-19.557-27.407c-2.887-4.046-1.947-9.667,2.099-12.554c4.047-2.888,9.667-1.946,12.554,2.099l40.001,56.06
	c2.887,4.046,1.947,9.667-2.099,12.554c-4.048,2.887-9.668,1.946-12.554-2.099l-2.444-3.426v66.108h51.809
	c8.628-35.151,17.255-73.593,16.969-108.182c-0.313-37.744-16.654-58.412-41.39-89.695c-3.488-4.412-7.094-8.971-10.833-13.807
	c-25.771-28.166-30.306-28.631-77.976-28.404c-0.569,0.033-14.626,0.051-14.626,0.051c-4.971,0-9-4.029-9-9s4.029-9,9-9
	c0,0,13.305-0.045,13.919-0.048c5.041-0.481,8.988-4.508,8.988-9.388V27.435c0-5.202-4.487-9.435-10.003-9.435H151.884
	c-5.517,0-10.005,4.232-10.005,9.435v10.509c0,4.88,3.948,8.906,8.99,9.388c0.616,0.003,13.919,0.048,13.919,0.048
	c4.971,0,9,4.029,9,9s-4.029,9-9,9c0,0-14.057-0.018-14.626-0.051c-47.669-0.236-52.202,0.237-77.972,28.404
	c-3.739,4.834-7.343,9.392-10.83,13.802c-24.74,31.285-41.085,51.953-41.395,89.7c-0.285,34.59,8.341,73.029,16.969,108.182h51.811
	v-66.114l-2.448,3.432c-2.886,4.045-8.507,4.986-12.554,2.099c-4.046-2.887-4.985-8.508-2.099-12.554l40.001-56.06
	c2.886-4.045,8.507-4.985,12.554-2.099c4.046,2.887,4.985,8.508,2.099,12.554l-19.553,27.402v137.892
	c0,2.388-0.948,4.677-2.637,6.365c-1.688,1.687-3.978,2.635-6.363,2.635c-0.001,0-0.002,0-0.003,0l-58.807-0.019
	c-4.216-0.001-7.865-2.929-8.782-7.043c-2.242-10.07-4.911-20.826-7.736-32.213c-9.743-39.271-20.787-83.78-20.451-124.607
	c0.361-43.921,20.182-68.985,45.275-100.717c3.527-4.461,11.245-14.324,11.412-14.508c25.293-27.673,37.264-33.319,66.982-34.349
	c-1.136-2.98-1.757-6.206-1.757-9.569V27.435C123.879,12.307,136.441,0,151.884,0h103.498c15.44,0,28.003,12.307,28.003,27.435
	v10.509c0,3.363-0.621,6.589-1.757,9.569c29.724,1.028,41.691,6.674,66.987,34.349c0.168,0.184,7.888,10.051,11.416,14.514
	C385.12,128.105,404.936,153.168,405.302,197.085z M41.389,323.416c1.665,6.731,3.259,13.238,4.728,19.535l42.629,0.014v-19.549
	H41.389z M365.879,323.416h-47.354v19.549l42.627-0.014C362.62,336.654,364.214,330.146,365.879,323.416z M169.81,337.95
	c-4.971,0-9,4.029-9,9v15.81c0,4.971,4.029,9,9,9s9-4.029,9-9v-15.81C178.81,341.979,174.78,337.95,169.81,337.95z M152.405,116.917
	l-11.345,8.606l-11.34-8.605c-3.96-3.007-9.606-2.23-12.609,1.729c-3.005,3.959-2.231,9.605,1.729,12.609l16.779,12.733
	c1.608,1.221,3.524,1.831,5.44,1.831c1.915,0,3.832-0.61,5.439-1.83l16.785-12.733c3.96-3.004,4.735-8.649,1.73-12.609
	C162.012,114.687,156.363,113.911,152.405,116.917z"/>
<g>
</g>
<g>
</g>
<g>
</g>
<g>
</g>
<g>
</g>
<g>
</g>
<g>
</g>
<g>
</g>
<g>
</g>
<g>
</g>
<g>
</g>
<g>
</g>
<g>
</g>
<g>
</g>
<g>
</g>
</svg>
